# xmcd
#
# Track frame offsets:
# 150
# 1214
# 2069
#
# Disc length: 36 seconds
#
# Revision: 0
# Processed by: cddbd v1.5.2PL0 Copyright (c) Steve Scherf et al.
# Submitted via: Audion 3.0.2 (http://www.panic.com/audion/)
#
DISCID=12002203
DTITLE=Jim - RMS
DYEAR=1900
DGENRE=
TTITLE0=Cartoon
TTITLE1=It's the rich
TTITLE2=America
EXTD=
EXTT0=
EXTT1=
EXTT2=
PLAYORDER=
